<mxfile host="65bd71144e">
    <diagram id="-khxsQ8ibs5uv4q8_mbi" name="Page-1">
        <mxGraphModel dx="1090" dy="552" grid="1" gridSize="10" guides="1" tooltips="1" connect="1" arrows="1" fold="1" page="1" pageScale="1" pageWidth="827" pageHeight="1169" background="none" math="0" shadow="0">
            <root>
                <mxCell id="0"/>
                <mxCell id="1" parent="0"/>
                <mxCell id="5" value="SERVER" style="rounded=0;whiteSpace=wrap;html=1;" vertex="1" parent="1">
                    <mxGeometry x="180" y="80" width="120" height="60" as="geometry"/>
                </mxCell>
                <mxCell id="6" value="CLIENT" style="rounded=0;whiteSpace=wrap;html=1;" vertex="1" parent="1">
                    <mxGeometry x="500" y="80" width="120" height="60" as="geometry"/>
                </mxCell>
                <mxCell id="14" value="1: Call for rescue start" style="edgeStyle=none;jumpStyle=none;jumpSize=6;html=1;strokeWidth=1;rounded=0;endArrow=open;endFill=0;align=left;" edge="1" parent="1">
                    <mxGeometry x="0.0018" relative="1" as="geometry">
                        <mxPoint x="250" y="170" as="sourcePoint"/>
                        <mxPoint x="250" y="190" as="targetPoint"/>
                        <Array as="points">
                            <mxPoint x="260" y="170"/>
                            <mxPoint x="260" y="190"/>
                        </Array>
                        <mxPoint as="offset"/>
                    </mxGeometry>
                </mxCell>
                <mxCell id="12" value="" style="rounded=0;whiteSpace=wrap;html=1;fillColor=#1ba1e2;fontColor=#ffffff;strokeColor=#000000;" vertex="1" parent="1">
                    <mxGeometry x="235" y="160" width="10" height="430" as="geometry"/>
                </mxCell>
                <mxCell id="16" value="" style="endArrow=none;dashed=1;html=1;strokeWidth=1;jumpStyle=none;jumpSize=6;exitX=0.5;exitY=1;exitDx=0;exitDy=0;startArrow=none;entryX=0.5;entryY=0;entryDx=0;entryDy=0;" edge="1" parent="1" source="5" target="12">
                    <mxGeometry width="50" height="50" relative="1" as="geometry">
                        <mxPoint x="89.88999999999999" y="150" as="sourcePoint"/>
                        <mxPoint x="100" y="160" as="targetPoint"/>
                    </mxGeometry>
                </mxCell>
                <mxCell id="17" value="" style="endArrow=none;dashed=1;html=1;strokeWidth=1;jumpStyle=none;jumpSize=6;exitX=0.5;exitY=1;exitDx=0;exitDy=0;startArrow=none;" edge="1" parent="1" source="38">
                    <mxGeometry width="50" height="50" relative="1" as="geometry">
                        <mxPoint x="559.76" y="190" as="sourcePoint"/>
                        <mxPoint x="560" y="710" as="targetPoint"/>
                    </mxGeometry>
                </mxCell>
                <mxCell id="20" style="edgeStyle=none;rounded=0;jumpStyle=none;jumpSize=6;html=1;dashed=1;endArrow=none;endFill=0;strokeWidth=1;" edge="1" parent="1">
                    <mxGeometry relative="1" as="geometry">
                        <mxPoint x="140" y="170" as="sourcePoint"/>
                        <mxPoint x="230" y="170" as="targetPoint"/>
                    </mxGeometry>
                </mxCell>
                <mxCell id="19" value="&lt;font style=&quot;font-size: 11px&quot;&gt;Called externally&lt;/font&gt;" style="shape=note;strokeWidth=2;fontSize=14;size=20;whiteSpace=wrap;html=1;fillColor=#fff2cc;strokeColor=#d6b656;fontColor=#666600;align=left;" vertex="1" parent="1">
                    <mxGeometry x="20" y="150" width="110" height="40" as="geometry"/>
                </mxCell>
                <mxCell id="21" value="&lt;span style=&quot;font-size: 11px&quot;&gt;Create rescue object&lt;br&gt;Set status&lt;br&gt;Set stage&lt;br&gt;Store rescue object&lt;br&gt;&lt;/span&gt;" style="shape=note;strokeWidth=2;fontSize=14;size=20;whiteSpace=wrap;html=1;fillColor=#fff2cc;strokeColor=#d6b656;fontColor=#666600;align=left;" vertex="1" parent="1">
                    <mxGeometry x="20" y="200" width="110" height="100" as="geometry"/>
                </mxCell>
                <mxCell id="22" style="edgeStyle=none;rounded=0;jumpStyle=none;jumpSize=6;html=1;dashed=1;endArrow=none;endFill=0;strokeWidth=1;" edge="1" parent="1">
                    <mxGeometry relative="1" as="geometry">
                        <mxPoint x="140" y="220" as="sourcePoint"/>
                        <mxPoint x="230" y="220" as="targetPoint"/>
                    </mxGeometry>
                </mxCell>
                <mxCell id="23" value="2: Setup rescue" style="edgeStyle=none;jumpStyle=none;jumpSize=6;html=1;strokeWidth=1;rounded=0;endArrow=open;endFill=0;align=left;" edge="1" parent="1">
                    <mxGeometry x="0.0018" relative="1" as="geometry">
                        <mxPoint x="250" y="220" as="sourcePoint"/>
                        <mxPoint x="250" y="240" as="targetPoint"/>
                        <Array as="points">
                            <mxPoint x="260" y="220"/>
                            <mxPoint x="260" y="240"/>
                        </Array>
                        <mxPoint as="offset"/>
                    </mxGeometry>
                </mxCell>
                <mxCell id="24" value="" style="rounded=0;whiteSpace=wrap;html=1;fillColor=#1ba1e2;fontColor=#ffffff;strokeColor=#000000;" vertex="1" parent="1">
                    <mxGeometry x="555" y="250" width="10" height="50" as="geometry"/>
                </mxCell>
                <mxCell id="25" value="" style="endArrow=none;dashed=1;html=1;strokeWidth=1;jumpStyle=none;jumpSize=6;exitX=0.5;exitY=1;exitDx=0;exitDy=0;startArrow=none;" edge="1" parent="1" source="6" target="24">
                    <mxGeometry width="50" height="50" relative="1" as="geometry">
                        <mxPoint x="560" y="140.00000000000006" as="sourcePoint"/>
                        <mxPoint x="560" y="660" as="targetPoint"/>
                    </mxGeometry>
                </mxCell>
                <mxCell id="26" value="3: Get type of rescue" style="edgeStyle=none;jumpStyle=none;jumpSize=6;html=1;strokeWidth=1;rounded=0;endArrow=open;endFill=0;align=left;" edge="1" parent="1">
                    <mxGeometry x="-0.2667" y="-10" relative="1" as="geometry">
                        <mxPoint x="250" y="260" as="sourcePoint"/>
                        <mxPoint x="550" y="260" as="targetPoint"/>
                        <Array as="points">
                            <mxPoint x="270" y="260"/>
                        </Array>
                        <mxPoint as="offset"/>
                    </mxGeometry>
                </mxCell>
                <mxCell id="28" value="3.1: Return type of rescue" style="edgeStyle=none;jumpStyle=none;jumpSize=6;html=1;strokeWidth=1;rounded=0;endArrow=none;endFill=0;align=left;startArrow=open;startFill=0;dashed=1;" edge="1" parent="1">
                    <mxGeometry x="-0.2667" y="-10" relative="1" as="geometry">
                        <mxPoint x="250" y="290" as="sourcePoint"/>
                        <mxPoint x="550" y="290" as="targetPoint"/>
                        <Array as="points">
                            <mxPoint x="275" y="290"/>
                        </Array>
                        <mxPoint as="offset"/>
                    </mxGeometry>
                </mxCell>
                <mxCell id="30" value="" style="endArrow=none;dashed=1;html=1;strokeWidth=1;jumpStyle=none;jumpSize=6;startArrow=none;exitX=0.5;exitY=1;exitDx=0;exitDy=0;" edge="1" parent="1" source="108">
                    <mxGeometry width="50" height="50" relative="1" as="geometry">
                        <mxPoint x="240" y="1380" as="sourcePoint"/>
                        <mxPoint x="240" y="2260" as="targetPoint"/>
                    </mxGeometry>
                </mxCell>
                <mxCell id="31" value="4: Change stage" style="edgeStyle=none;jumpStyle=none;jumpSize=6;html=1;strokeWidth=1;rounded=0;endArrow=open;endFill=0;align=left;" edge="1" parent="1">
                    <mxGeometry relative="1" as="geometry">
                        <mxPoint x="250" y="320" as="sourcePoint"/>
                        <mxPoint x="250" y="340" as="targetPoint"/>
                        <Array as="points">
                            <mxPoint x="260" y="320"/>
                            <mxPoint x="260" y="340"/>
                        </Array>
                        <mxPoint as="offset"/>
                    </mxGeometry>
                </mxCell>
                <mxCell id="34" value="5: Get rescue points" style="edgeStyle=none;jumpStyle=none;jumpSize=6;html=1;strokeWidth=1;rounded=0;endArrow=open;endFill=0;align=left;" edge="1" parent="1">
                    <mxGeometry x="-0.2667" y="-10" relative="1" as="geometry">
                        <mxPoint x="250.0000000000001" y="370" as="sourcePoint"/>
                        <mxPoint x="550" y="370" as="targetPoint"/>
                        <Array as="points">
                            <mxPoint x="270" y="370"/>
                        </Array>
                        <mxPoint as="offset"/>
                    </mxGeometry>
                </mxCell>
                <mxCell id="35" value="5.1: Return rescue points" style="edgeStyle=none;jumpStyle=none;jumpSize=6;html=1;strokeWidth=1;rounded=0;endArrow=none;endFill=0;align=left;startArrow=open;startFill=0;dashed=1;" edge="1" parent="1">
                    <mxGeometry x="-0.2667" y="-10" relative="1" as="geometry">
                        <mxPoint x="250.0000000000001" y="400" as="sourcePoint"/>
                        <mxPoint x="550" y="400" as="targetPoint"/>
                        <Array as="points">
                            <mxPoint x="275" y="400"/>
                        </Array>
                        <mxPoint as="offset"/>
                    </mxGeometry>
                </mxCell>
                <mxCell id="36" value="6: Change stage" style="edgeStyle=none;jumpStyle=none;jumpSize=6;html=1;strokeWidth=1;rounded=0;endArrow=open;endFill=0;align=left;" edge="1" parent="1">
                    <mxGeometry relative="1" as="geometry">
                        <mxPoint x="250.0000000000001" y="430" as="sourcePoint"/>
                        <mxPoint x="250.0000000000001" y="450" as="targetPoint"/>
                        <Array as="points">
                            <mxPoint x="260" y="430"/>
                            <mxPoint x="260" y="450"/>
                        </Array>
                        <mxPoint as="offset"/>
                    </mxGeometry>
                </mxCell>
                <mxCell id="37" value="7: Create vehicle &amp;amp; AI" style="edgeStyle=none;jumpStyle=none;jumpSize=6;html=1;strokeWidth=1;rounded=0;endArrow=open;endFill=0;align=left;" edge="1" parent="1">
                    <mxGeometry relative="1" as="geometry">
                        <mxPoint x="250.0000000000001" y="480" as="sourcePoint"/>
                        <mxPoint x="250.0000000000001" y="500" as="targetPoint"/>
                        <Array as="points">
                            <mxPoint x="260" y="480"/>
                            <mxPoint x="260" y="500"/>
                        </Array>
                        <mxPoint as="offset"/>
                    </mxGeometry>
                </mxCell>
                <mxCell id="39" value="11.2: Request AI rappel" style="edgeStyle=none;jumpStyle=none;jumpSize=6;html=1;strokeWidth=1;rounded=0;endArrow=open;endFill=0;align=left;" edge="1" parent="1">
                    <mxGeometry x="-0.2667" y="-10" relative="1" as="geometry">
                        <mxPoint x="250.0000000000001" y="950" as="sourcePoint"/>
                        <mxPoint x="550" y="950" as="targetPoint"/>
                        <Array as="points">
                            <mxPoint x="270" y="950"/>
                        </Array>
                        <mxPoint as="offset"/>
                    </mxGeometry>
                </mxCell>
                <mxCell id="38" value="" style="rounded=0;whiteSpace=wrap;html=1;fillColor=#1ba1e2;fontColor=#ffffff;strokeColor=#000000;" vertex="1" parent="1">
                    <mxGeometry x="555" y="570" width="10" height="150" as="geometry"/>
                </mxCell>
                <mxCell id="41" value="" style="endArrow=none;dashed=1;html=1;strokeWidth=1;jumpStyle=none;jumpSize=6;exitX=0.5;exitY=1;exitDx=0;exitDy=0;startArrow=none;entryX=0.5;entryY=0;entryDx=0;entryDy=0;" edge="1" parent="1" source="24" target="32">
                    <mxGeometry width="50" height="50" relative="1" as="geometry">
                        <mxPoint x="560" y="300" as="sourcePoint"/>
                        <mxPoint x="560" y="350" as="targetPoint"/>
                    </mxGeometry>
                </mxCell>
                <mxCell id="46" value="8: Change stage" style="edgeStyle=none;jumpStyle=none;jumpSize=6;html=1;strokeWidth=1;rounded=0;endArrow=open;endFill=0;align=left;" edge="1" parent="1">
                    <mxGeometry relative="1" as="geometry">
                        <mxPoint x="250.0000000000001" y="530" as="sourcePoint"/>
                        <mxPoint x="250.0000000000001" y="550" as="targetPoint"/>
                        <Array as="points">
                            <mxPoint x="260" y="530"/>
                            <mxPoint x="260" y="550"/>
                        </Array>
                        <mxPoint as="offset"/>
                    </mxGeometry>
                </mxCell>
                <mxCell id="32" value="" style="rounded=0;whiteSpace=wrap;html=1;fillColor=#1ba1e2;fontColor=#ffffff;strokeColor=#000000;" vertex="1" parent="1">
                    <mxGeometry x="555" y="360" width="10" height="50" as="geometry"/>
                </mxCell>
                <mxCell id="48" value="" style="endArrow=none;dashed=1;html=1;strokeWidth=1;jumpStyle=none;jumpSize=6;startArrow=none;entryX=0.5;entryY=1;entryDx=0;entryDy=0;exitX=0.5;exitY=0;exitDx=0;exitDy=0;" edge="1" parent="1" source="38" target="32">
                    <mxGeometry width="50" height="50" relative="1" as="geometry">
                        <mxPoint x="560" y="520" as="sourcePoint"/>
                        <mxPoint x="570" y="370" as="targetPoint"/>
                    </mxGeometry>
                </mxCell>
                <mxCell id="49" value="9.1: Vehicle goto point" style="edgeStyle=none;jumpStyle=none;jumpSize=6;html=1;strokeWidth=1;rounded=0;endArrow=open;endFill=0;align=left;" edge="1" parent="1">
                    <mxGeometry relative="1" as="geometry">
                        <mxPoint x="570" y="610" as="sourcePoint"/>
                        <mxPoint x="570" y="680" as="targetPoint"/>
                        <Array as="points">
                            <mxPoint x="580" y="610"/>
                            <mxPoint x="580" y="680"/>
                        </Array>
                        <mxPoint as="offset"/>
                    </mxGeometry>
                </mxCell>
                <mxCell id="50" value="9.2: Return stage complete" style="edgeStyle=none;jumpStyle=none;jumpSize=6;html=1;strokeWidth=1;rounded=0;endArrow=none;endFill=0;align=left;startArrow=open;startFill=0;dashed=1;" edge="1" parent="1">
                    <mxGeometry x="-0.2667" y="-10" relative="1" as="geometry">
                        <mxPoint x="250" y="710" as="sourcePoint"/>
                        <mxPoint x="550" y="710" as="targetPoint"/>
                        <Array as="points"/>
                        <mxPoint as="offset"/>
                    </mxGeometry>
                </mxCell>
                <mxCell id="51" value="" style="endArrow=none;dashed=1;html=1;strokeWidth=1;jumpStyle=none;jumpSize=6;startArrow=none;entryX=0.5;entryY=1;entryDx=0;entryDy=0;" edge="1" parent="1" source="75" target="38">
                    <mxGeometry width="50" height="50" relative="1" as="geometry">
                        <mxPoint x="560" y="1540" as="sourcePoint"/>
                        <mxPoint x="540" y="760" as="targetPoint"/>
                    </mxGeometry>
                </mxCell>
                <mxCell id="53" value="" style="endArrow=none;dashed=1;html=1;strokeWidth=1;jumpStyle=none;jumpSize=6;exitX=0.5;exitY=1;exitDx=0;exitDy=0;startArrow=none;" edge="1" parent="1" source="12" target="52">
                    <mxGeometry width="50" height="50" relative="1" as="geometry">
                        <mxPoint x="240" y="590" as="sourcePoint"/>
                        <mxPoint x="240" y="980" as="targetPoint"/>
                    </mxGeometry>
                </mxCell>
                <mxCell id="54" value="10: Change stage" style="edgeStyle=none;jumpStyle=none;jumpSize=6;html=1;strokeWidth=1;rounded=0;endArrow=open;endFill=0;align=left;" edge="1" parent="1">
                    <mxGeometry relative="1" as="geometry">
                        <mxPoint x="250.00000000000023" y="740.0000000000001" as="sourcePoint"/>
                        <mxPoint x="250.00000000000023" y="760.0000000000001" as="targetPoint"/>
                        <Array as="points">
                            <mxPoint x="260" y="740"/>
                            <mxPoint x="260" y="760"/>
                        </Array>
                        <mxPoint as="offset"/>
                    </mxGeometry>
                </mxCell>
                <mxCell id="55" value="11.1: AI exit vehicle" style="edgeStyle=none;jumpStyle=none;jumpSize=6;html=1;strokeWidth=1;rounded=0;endArrow=open;endFill=0;align=left;" edge="1" parent="1">
                    <mxGeometry relative="1" as="geometry">
                        <mxPoint x="250.00000000000023" y="830.0000000000001" as="sourcePoint"/>
                        <mxPoint x="250.00000000000023" y="850.0000000000001" as="targetPoint"/>
                        <Array as="points">
                            <mxPoint x="260" y="830"/>
                            <mxPoint x="260" y="850"/>
                        </Array>
                        <mxPoint as="offset"/>
                    </mxGeometry>
                </mxCell>
                <mxCell id="62" value="[RESCUE_TYPE == GROUND]" style="text;html=1;strokeColor=none;fillColor=none;align=center;verticalAlign=middle;whiteSpace=wrap;rounded=0;fontSize=11;" vertex="1" parent="1">
                    <mxGeometry x="320" y="790" width="160" height="30" as="geometry"/>
                </mxCell>
                <mxCell id="63" value="[ELSE]" style="text;html=1;strokeColor=none;fillColor=none;align=center;verticalAlign=middle;whiteSpace=wrap;rounded=0;fontSize=11;" vertex="1" parent="1">
                    <mxGeometry x="320" y="910" width="160" height="30" as="geometry"/>
                </mxCell>
                <mxCell id="64" value="9: Request vehicle goto point" style="edgeStyle=none;jumpStyle=none;jumpSize=6;html=1;strokeWidth=1;rounded=0;endArrow=open;endFill=0;align=left;" edge="1" parent="1">
                    <mxGeometry x="-0.2667" y="-10" relative="1" as="geometry">
                        <mxPoint x="250" y="580" as="sourcePoint"/>
                        <mxPoint x="550" y="580" as="targetPoint"/>
                        <Array as="points">
                            <mxPoint x="270" y="580"/>
                        </Array>
                        <mxPoint as="offset"/>
                    </mxGeometry>
                </mxCell>
                <mxCell id="65" value="" style="rounded=0;whiteSpace=wrap;html=1;fillColor=#1ba1e2;fontColor=#ffffff;strokeColor=#000000;" vertex="1" parent="1">
                    <mxGeometry x="555" y="940" width="10" height="150" as="geometry"/>
                </mxCell>
                <mxCell id="66" value="11.3: AI rappel from vehicle" style="edgeStyle=none;jumpStyle=none;jumpSize=6;html=1;strokeWidth=1;rounded=0;endArrow=open;endFill=0;align=left;" edge="1" parent="1">
                    <mxGeometry relative="1" as="geometry">
                        <mxPoint x="570" y="980" as="sourcePoint"/>
                        <mxPoint x="570" y="1050" as="targetPoint"/>
                        <Array as="points">
                            <mxPoint x="580" y="980"/>
                            <mxPoint x="580" y="1050"/>
                        </Array>
                        <mxPoint as="offset"/>
                    </mxGeometry>
                </mxCell>
                <mxCell id="67" value="11.4: Return stage complete" style="edgeStyle=none;jumpStyle=none;jumpSize=6;html=1;strokeWidth=1;rounded=0;endArrow=none;endFill=0;align=left;startArrow=open;startFill=0;dashed=1;" edge="1" parent="1">
                    <mxGeometry x="-0.2667" y="-10" relative="1" as="geometry">
                        <mxPoint x="250" y="1080" as="sourcePoint"/>
                        <mxPoint x="550" y="1080" as="targetPoint"/>
                        <Array as="points"/>
                        <mxPoint as="offset"/>
                    </mxGeometry>
                </mxCell>
                <mxCell id="68" value="12: Change stage" style="edgeStyle=none;jumpStyle=none;jumpSize=6;html=1;strokeWidth=1;rounded=0;endArrow=open;endFill=0;align=left;" edge="1" parent="1">
                    <mxGeometry relative="1" as="geometry">
                        <mxPoint x="250.00000000000023" y="1149" as="sourcePoint"/>
                        <mxPoint x="250.00000000000023" y="1169" as="targetPoint"/>
                        <Array as="points">
                            <mxPoint x="260" y="1149"/>
                            <mxPoint x="260" y="1169"/>
                        </Array>
                        <mxPoint as="offset"/>
                    </mxGeometry>
                </mxCell>
                <mxCell id="71" value="13: AI goto point" style="edgeStyle=none;jumpStyle=none;jumpSize=6;html=1;strokeWidth=1;rounded=0;endArrow=open;endFill=0;align=left;" edge="1" parent="1">
                    <mxGeometry relative="1" as="geometry">
                        <mxPoint x="250.00000000000023" y="1200" as="sourcePoint"/>
                        <mxPoint x="250.00000000000023" y="1220" as="targetPoint"/>
                        <Array as="points">
                            <mxPoint x="260" y="1200"/>
                            <mxPoint x="260" y="1220"/>
                        </Array>
                        <mxPoint as="offset"/>
                    </mxGeometry>
                </mxCell>
                <mxCell id="72" value="14: Change stage" style="edgeStyle=none;jumpStyle=none;jumpSize=6;html=1;strokeWidth=1;rounded=0;endArrow=open;endFill=0;align=left;" edge="1" parent="1">
                    <mxGeometry relative="1" as="geometry">
                        <mxPoint x="250.00000000000023" y="1250" as="sourcePoint"/>
                        <mxPoint x="250.00000000000023" y="1270" as="targetPoint"/>
                        <Array as="points">
                            <mxPoint x="260" y="1250"/>
                            <mxPoint x="260" y="1270"/>
                        </Array>
                        <mxPoint as="offset"/>
                    </mxGeometry>
                </mxCell>
                <mxCell id="73" value="15: Create object" style="edgeStyle=none;jumpStyle=none;jumpSize=6;html=1;strokeWidth=1;rounded=0;endArrow=open;endFill=0;align=left;" edge="1" parent="1">
                    <mxGeometry relative="1" as="geometry">
                        <mxPoint x="250.00000000000023" y="1300" as="sourcePoint"/>
                        <mxPoint x="250.00000000000023" y="1320" as="targetPoint"/>
                        <Array as="points">
                            <mxPoint x="260" y="1300"/>
                            <mxPoint x="260" y="1320"/>
                        </Array>
                        <mxPoint as="offset"/>
                    </mxGeometry>
                </mxCell>
                <mxCell id="74" value="15.1: Request player grab" style="edgeStyle=none;jumpStyle=none;jumpSize=6;html=1;strokeWidth=1;rounded=0;endArrow=open;endFill=0;align=left;" edge="1" parent="1">
                    <mxGeometry x="-0.2667" y="-10" relative="1" as="geometry">
                        <mxPoint x="250.0000000000001" y="1350" as="sourcePoint"/>
                        <mxPoint x="550" y="1350" as="targetPoint"/>
                        <Array as="points">
                            <mxPoint x="270" y="1350"/>
                        </Array>
                        <mxPoint as="offset"/>
                    </mxGeometry>
                </mxCell>
                <mxCell id="76" value="" style="rounded=0;whiteSpace=wrap;html=1;fillColor=#1ba1e2;fontColor=#ffffff;strokeColor=#000000;" vertex="1" parent="1">
                    <mxGeometry x="235" y="1070" width="10" height="290" as="geometry"/>
                </mxCell>
                <mxCell id="77" value="" style="endArrow=none;dashed=1;html=1;strokeWidth=1;jumpStyle=none;jumpSize=6;startArrow=none;entryX=0.5;entryY=1;entryDx=0;entryDy=0;exitX=0.5;exitY=0;exitDx=0;exitDy=0;" edge="1" parent="1" source="76" target="52">
                    <mxGeometry width="50" height="50" relative="1" as="geometry">
                        <mxPoint x="170" y="980" as="sourcePoint"/>
                        <mxPoint x="770" y="1040" as="targetPoint"/>
                    </mxGeometry>
                </mxCell>
                <mxCell id="52" value="" style="rounded=0;whiteSpace=wrap;html=1;fillColor=#1ba1e2;fontColor=#ffffff;strokeColor=#000000;" vertex="1" parent="1">
                    <mxGeometry x="235" y="700" width="10" height="260" as="geometry"/>
                </mxCell>
                <mxCell id="79" value="15.2: Grab player" style="edgeStyle=none;jumpStyle=none;jumpSize=6;html=1;strokeWidth=1;rounded=0;endArrow=open;endFill=0;align=left;" edge="1" parent="1">
                    <mxGeometry relative="1" as="geometry">
                        <mxPoint x="570" y="1380" as="sourcePoint"/>
                        <mxPoint x="570" y="1400" as="targetPoint"/>
                        <Array as="points">
                            <mxPoint x="580" y="1380"/>
                            <mxPoint x="580" y="1400"/>
                        </Array>
                        <mxPoint as="offset"/>
                    </mxGeometry>
                </mxCell>
                <mxCell id="75" value="" style="rounded=0;whiteSpace=wrap;html=1;fillColor=#1ba1e2;fontColor=#ffffff;strokeColor=#000000;" vertex="1" parent="1">
                    <mxGeometry x="555" y="1340" width="10" height="100" as="geometry"/>
                </mxCell>
                <mxCell id="80" value="" style="endArrow=none;dashed=1;html=1;strokeWidth=1;jumpStyle=none;jumpSize=6;startArrow=none;entryX=0.5;entryY=1;entryDx=0;entryDy=0;" edge="1" parent="1" source="92" target="75">
                    <mxGeometry width="50" height="50" relative="1" as="geometry">
                        <mxPoint x="560" y="1700" as="sourcePoint"/>
                        <mxPoint x="560" y="720" as="targetPoint"/>
                    </mxGeometry>
                </mxCell>
                <mxCell id="81" value="15.3: Return stage complete" style="edgeStyle=none;jumpStyle=none;jumpSize=6;html=1;strokeWidth=1;rounded=0;endArrow=none;endFill=0;align=left;startArrow=open;startFill=0;dashed=1;" edge="1" parent="1">
                    <mxGeometry x="-0.2667" y="-10" relative="1" as="geometry">
                        <mxPoint x="250" y="1430" as="sourcePoint"/>
                        <mxPoint x="550" y="1430" as="targetPoint"/>
                        <Array as="points"/>
                        <mxPoint as="offset"/>
                    </mxGeometry>
                </mxCell>
                <mxCell id="82" value="" style="rounded=0;whiteSpace=wrap;html=1;fillColor=#1ba1e2;fontColor=#ffffff;strokeColor=#000000;" vertex="1" parent="1">
                    <mxGeometry x="235" y="1420" width="10" height="200" as="geometry"/>
                </mxCell>
                <mxCell id="83" value="" style="endArrow=none;dashed=1;html=1;strokeWidth=1;jumpStyle=none;jumpSize=6;startArrow=none;exitX=0.5;exitY=1;exitDx=0;exitDy=0;" edge="1" parent="1" source="76" target="82">
                    <mxGeometry width="50" height="50" relative="1" as="geometry">
                        <mxPoint x="240" y="1360" as="sourcePoint"/>
                        <mxPoint x="240" y="1539.9999999999998" as="targetPoint"/>
                    </mxGeometry>
                </mxCell>
                <mxCell id="86" value="16: Change stage" style="edgeStyle=none;jumpStyle=none;jumpSize=6;html=1;strokeWidth=1;rounded=0;endArrow=open;endFill=0;align=left;" edge="1" parent="1">
                    <mxGeometry relative="1" as="geometry">
                        <mxPoint x="250.00000000000023" y="1460" as="sourcePoint"/>
                        <mxPoint x="250.00000000000023" y="1480" as="targetPoint"/>
                        <Array as="points">
                            <mxPoint x="260" y="1460"/>
                            <mxPoint x="260" y="1480"/>
                        </Array>
                        <mxPoint as="offset"/>
                    </mxGeometry>
                </mxCell>
                <mxCell id="87" value="17: AI goto point" style="edgeStyle=none;jumpStyle=none;jumpSize=6;html=1;strokeWidth=1;rounded=0;endArrow=open;endFill=0;align=left;" edge="1" parent="1">
                    <mxGeometry relative="1" as="geometry">
                        <mxPoint x="250.00000000000023" y="1510" as="sourcePoint"/>
                        <mxPoint x="250.00000000000023" y="1530" as="targetPoint"/>
                        <Array as="points">
                            <mxPoint x="260" y="1510"/>
                            <mxPoint x="260" y="1530"/>
                        </Array>
                        <mxPoint as="offset"/>
                    </mxGeometry>
                </mxCell>
                <mxCell id="88" value="18: Change stage" style="edgeStyle=none;jumpStyle=none;jumpSize=6;html=1;strokeWidth=1;rounded=0;endArrow=open;endFill=0;align=left;" edge="1" parent="1">
                    <mxGeometry relative="1" as="geometry">
                        <mxPoint x="250.00000000000023" y="1560" as="sourcePoint"/>
                        <mxPoint x="250.00000000000023" y="1580" as="targetPoint"/>
                        <Array as="points">
                            <mxPoint x="260" y="1560"/>
                            <mxPoint x="260" y="1580"/>
                        </Array>
                        <mxPoint as="offset"/>
                    </mxGeometry>
                </mxCell>
                <mxCell id="90" value="19: Request player store" style="edgeStyle=none;jumpStyle=none;jumpSize=6;html=1;strokeWidth=1;rounded=0;endArrow=open;endFill=0;align=left;" edge="1" parent="1">
                    <mxGeometry x="-0.2667" y="-10" relative="1" as="geometry">
                        <mxPoint x="250" y="1610" as="sourcePoint"/>
                        <mxPoint x="550" y="1610" as="targetPoint"/>
                        <Array as="points">
                            <mxPoint x="270" y="1610"/>
                        </Array>
                        <mxPoint as="offset"/>
                    </mxGeometry>
                </mxCell>
                <mxCell id="91" value="19.1: Store player" style="edgeStyle=none;jumpStyle=none;jumpSize=6;html=1;strokeWidth=1;rounded=0;endArrow=open;endFill=0;align=left;" edge="1" parent="1">
                    <mxGeometry relative="1" as="geometry">
                        <mxPoint x="570" y="1640" as="sourcePoint"/>
                        <mxPoint x="570" y="1660" as="targetPoint"/>
                        <Array as="points">
                            <mxPoint x="580" y="1640"/>
                            <mxPoint x="580" y="1660"/>
                        </Array>
                        <mxPoint as="offset"/>
                    </mxGeometry>
                </mxCell>
                <mxCell id="93" value="19.2: Return stage complete" style="edgeStyle=none;jumpStyle=none;jumpSize=6;html=1;strokeWidth=1;rounded=0;endArrow=none;endFill=0;align=left;startArrow=open;startFill=0;dashed=1;" edge="1" parent="1">
                    <mxGeometry x="-0.2667" y="-10" relative="1" as="geometry">
                        <mxPoint x="250" y="1690" as="sourcePoint"/>
                        <mxPoint x="550" y="1690" as="targetPoint"/>
                        <Array as="points"/>
                        <mxPoint as="offset"/>
                    </mxGeometry>
                </mxCell>
                <mxCell id="92" value="" style="rounded=0;whiteSpace=wrap;html=1;fillColor=#1ba1e2;fontColor=#ffffff;strokeColor=#000000;" vertex="1" parent="1">
                    <mxGeometry x="555" y="1600" width="10" height="100" as="geometry"/>
                </mxCell>
                <mxCell id="95" value="" style="endArrow=none;dashed=1;html=1;strokeWidth=1;jumpStyle=none;jumpSize=6;startArrow=none;entryX=0.5;entryY=1;entryDx=0;entryDy=0;" edge="1" parent="1" target="92">
                    <mxGeometry width="50" height="50" relative="1" as="geometry">
                        <mxPoint x="560.0000000000001" y="1700" as="sourcePoint"/>
                        <mxPoint x="560.0000000000001" y="1440" as="targetPoint"/>
                    </mxGeometry>
                </mxCell>
                <mxCell id="96" value="" style="endArrow=none;dashed=1;html=1;strokeWidth=1;jumpStyle=none;jumpSize=6;startArrow=none;exitX=0.5;exitY=1;exitDx=0;exitDy=0;" edge="1" parent="1" source="101">
                    <mxGeometry width="50" height="50" relative="1" as="geometry">
                        <mxPoint x="250" y="1630" as="sourcePoint"/>
                        <mxPoint x="560" y="2260" as="targetPoint"/>
                    </mxGeometry>
                </mxCell>
                <mxCell id="94" value="" style="rounded=0;whiteSpace=wrap;html=1;fillColor=#1ba1e2;fontColor=#ffffff;strokeColor=#000000;" vertex="1" parent="1">
                    <mxGeometry x="235" y="1680" width="10" height="200" as="geometry"/>
                </mxCell>
                <mxCell id="97" value="" style="endArrow=none;dashed=1;html=1;strokeWidth=1;jumpStyle=none;jumpSize=6;startArrow=none;exitX=0.5;exitY=1;exitDx=0;exitDy=0;" edge="1" parent="1" source="82" target="94">
                    <mxGeometry width="50" height="50" relative="1" as="geometry">
                        <mxPoint x="240" y="1620" as="sourcePoint"/>
                        <mxPoint x="240" y="1940" as="targetPoint"/>
                    </mxGeometry>
                </mxCell>
                <mxCell id="98" value="20: Change stage" style="edgeStyle=none;jumpStyle=none;jumpSize=6;html=1;strokeWidth=1;rounded=0;endArrow=open;endFill=0;align=left;" edge="1" parent="1">
                    <mxGeometry relative="1" as="geometry">
                        <mxPoint x="250.00000000000023" y="1719.9999999999998" as="sourcePoint"/>
                        <mxPoint x="250.00000000000023" y="1739.9999999999998" as="targetPoint"/>
                        <Array as="points">
                            <mxPoint x="260" y="1720"/>
                            <mxPoint x="260" y="1740"/>
                        </Array>
                        <mxPoint as="offset"/>
                    </mxGeometry>
                </mxCell>
                <mxCell id="99" value="21: AI enter vehicle" style="edgeStyle=none;jumpStyle=none;jumpSize=6;html=1;strokeWidth=1;rounded=0;endArrow=open;endFill=0;align=left;" edge="1" parent="1">
                    <mxGeometry relative="1" as="geometry">
                        <mxPoint x="250.00000000000023" y="1770" as="sourcePoint"/>
                        <mxPoint x="250.00000000000023" y="1790" as="targetPoint"/>
                        <Array as="points">
                            <mxPoint x="260" y="1770"/>
                            <mxPoint x="260" y="1790"/>
                        </Array>
                        <mxPoint as="offset"/>
                    </mxGeometry>
                </mxCell>
                <mxCell id="102" value="23.1: Vehicle goto point" style="edgeStyle=none;jumpStyle=none;jumpSize=6;html=1;strokeWidth=1;rounded=0;endArrow=open;endFill=0;align=left;" edge="1" parent="1">
                    <mxGeometry relative="1" as="geometry">
                        <mxPoint x="570" y="1900" as="sourcePoint"/>
                        <mxPoint x="570" y="1970" as="targetPoint"/>
                        <Array as="points">
                            <mxPoint x="580" y="1900"/>
                            <mxPoint x="580" y="1970"/>
                        </Array>
                        <mxPoint as="offset"/>
                    </mxGeometry>
                </mxCell>
                <mxCell id="103" value="23.2: Return stage complete" style="edgeStyle=none;jumpStyle=none;jumpSize=6;html=1;strokeWidth=1;rounded=0;endArrow=none;endFill=0;align=left;startArrow=open;startFill=0;dashed=1;" edge="1" parent="1">
                    <mxGeometry x="-0.2" y="-10" relative="1" as="geometry">
                        <mxPoint x="250" y="2000" as="sourcePoint"/>
                        <mxPoint x="550" y="2000" as="targetPoint"/>
                        <Array as="points"/>
                        <mxPoint as="offset"/>
                    </mxGeometry>
                </mxCell>
                <mxCell id="104" value="23: Request vehicle goto point" style="edgeStyle=none;jumpStyle=none;jumpSize=6;html=1;strokeWidth=1;rounded=0;endArrow=open;endFill=0;align=left;" edge="1" parent="1">
                    <mxGeometry x="-0.2667" y="-10" relative="1" as="geometry">
                        <mxPoint x="250" y="1870" as="sourcePoint"/>
                        <mxPoint x="550" y="1870" as="targetPoint"/>
                        <Array as="points">
                            <mxPoint x="270" y="1870"/>
                        </Array>
                        <mxPoint as="offset"/>
                    </mxGeometry>
                </mxCell>
                <mxCell id="101" value="" style="rounded=0;whiteSpace=wrap;html=1;fillColor=#1ba1e2;fontColor=#ffffff;strokeColor=#000000;" vertex="1" parent="1">
                    <mxGeometry x="555" y="1860" width="10" height="150" as="geometry"/>
                </mxCell>
                <mxCell id="105" value="" style="endArrow=none;dashed=1;html=1;strokeWidth=1;jumpStyle=none;jumpSize=6;startArrow=none;exitX=0.5;exitY=1;exitDx=0;exitDy=0;" edge="1" parent="1" source="92" target="101">
                    <mxGeometry width="50" height="50" relative="1" as="geometry">
                        <mxPoint x="560" y="1700" as="sourcePoint"/>
                        <mxPoint x="560" y="2260" as="targetPoint"/>
                    </mxGeometry>
                </mxCell>
                <mxCell id="107" value="22: Change stage" style="edgeStyle=none;jumpStyle=none;jumpSize=6;html=1;strokeWidth=1;rounded=0;endArrow=open;endFill=0;align=left;" edge="1" parent="1">
                    <mxGeometry relative="1" as="geometry">
                        <mxPoint x="250.00000000000023" y="1820" as="sourcePoint"/>
                        <mxPoint x="250.00000000000023" y="1840" as="targetPoint"/>
                        <Array as="points">
                            <mxPoint x="260" y="1820"/>
                            <mxPoint x="260" y="1840"/>
                        </Array>
                        <mxPoint as="offset"/>
                    </mxGeometry>
                </mxCell>
                <mxCell id="108" value="" style="rounded=0;whiteSpace=wrap;html=1;fillColor=#1ba1e2;fontColor=#ffffff;strokeColor=#000000;" vertex="1" parent="1">
                    <mxGeometry x="235" y="1990" width="10" height="20" as="geometry"/>
                </mxCell>
                <mxCell id="109" value="" style="endArrow=none;dashed=1;html=1;strokeWidth=1;jumpStyle=none;jumpSize=6;startArrow=none;exitX=0.5;exitY=1;exitDx=0;exitDy=0;" edge="1" parent="1" source="94" target="108">
                    <mxGeometry width="50" height="50" relative="1" as="geometry">
                        <mxPoint x="240" y="1880" as="sourcePoint"/>
                        <mxPoint x="240" y="2260" as="targetPoint"/>
                    </mxGeometry>
                </mxCell>
                <mxCell id="110" value="&lt;span style=&quot;font-size: 11px&quot;&gt;Determine type of rescue&lt;br&gt;GROUND / AIR&lt;br&gt;Do various height checks and&lt;br&gt;node comparisons&lt;br&gt;&lt;/span&gt;" style="shape=note;strokeWidth=2;fontSize=14;size=20;whiteSpace=wrap;html=1;fillColor=#fff2cc;strokeColor=#d6b656;fontColor=#666600;align=left;" vertex="1" parent="1">
                    <mxGeometry x="640" y="240" width="160" height="70" as="geometry"/>
                </mxCell>
                <mxCell id="111" value="&lt;span style=&quot;font-size: 11px&quot;&gt;Get start, end &amp;amp; delivery &lt;br&gt;points for rescue&lt;br&gt;&lt;/span&gt;" style="shape=note;strokeWidth=2;fontSize=14;size=20;whiteSpace=wrap;html=1;fillColor=#fff2cc;strokeColor=#d6b656;fontColor=#666600;align=left;" vertex="1" parent="1">
                    <mxGeometry x="640" y="350" width="160" height="40" as="geometry"/>
                </mxCell>
                <mxCell id="112" style="edgeStyle=none;rounded=0;jumpStyle=none;jumpSize=6;html=1;dashed=1;endArrow=none;endFill=0;strokeWidth=1;" edge="1" parent="1">
                    <mxGeometry relative="1" as="geometry">
                        <mxPoint x="570" y="260" as="sourcePoint"/>
                        <mxPoint x="630" y="260" as="targetPoint"/>
                    </mxGeometry>
                </mxCell>
                <mxCell id="113" style="edgeStyle=none;rounded=0;jumpStyle=none;jumpSize=6;html=1;dashed=1;endArrow=none;endFill=0;strokeWidth=1;" edge="1" parent="1">
                    <mxGeometry relative="1" as="geometry">
                        <mxPoint x="570" y="369.9200000000001" as="sourcePoint"/>
                        <mxPoint x="630" y="370" as="targetPoint"/>
                    </mxGeometry>
                </mxCell>
                <mxCell id="118" value="" style="group" vertex="1" connectable="0" parent="1">
                    <mxGeometry x="80" y="780" width="640" height="350" as="geometry"/>
                </mxCell>
                <mxCell id="114" value="" style="rounded=0;whiteSpace=wrap;html=1;fontSize=11;strokeColor=#000000;fillColor=none;" vertex="1" parent="118">
                    <mxGeometry width="640" height="350" as="geometry"/>
                </mxCell>
                <mxCell id="115" value="ALT" style="rounded=0;whiteSpace=wrap;html=1;fontSize=11;strokeColor=#000000;fillColor=none;" vertex="1" parent="118">
                    <mxGeometry width="40" height="20" as="geometry"/>
                </mxCell>
                <mxCell id="117" value="" style="endArrow=none;dashed=1;html=1;strokeWidth=1;jumpStyle=none;jumpSize=6;startArrow=none;" edge="1" parent="118">
                    <mxGeometry width="50" height="50" relative="1" as="geometry">
                        <mxPoint x="640" y="120" as="sourcePoint"/>
                        <mxPoint y="120" as="targetPoint"/>
                    </mxGeometry>
                </mxCell>
            </root>
        </mxGraphModel>
    </diagram>
</mxfile>